<svg width="1500" height="500" viewBox="0 0 1500 500" fill="none" xmlns="http://www.w3.org/2000/svg">
<g clip-path="url(#clip0_1_2)">
<rect width="1500" height="500" fill="#B1AE8C"/>
<rect x="59" y="298.038" width="291.94" height="291.94" rx="46" transform="rotate(-15.5041 59 298.038)" fill="#F6ED9A"/>
<circle cx="1284" cy="121" r="75" fill="#F6ED9A"/>
<rect x="1064.32" y="298" width="450" height="50" transform="rotate(22.727 1064.32 298)" fill="#99CEFE"/>
<path d="M622.328 -228.587C656.288 -238.618 688.373 -208.125 680.08 -173.699L590.901 196.523C582.608 230.949 540.158 243.488 514.49 219.094L238.459 -43.2489C212.791 -67.6436 223.157 -110.676 257.117 -120.708L622.328 -228.587Z" fill="#99CEFE"/>
<path d="M566.592 345.192L567.6 345.96C566.896 347.368 565.92 348.552 564.672 349.512C563.456 350.472 562.352 350.952 561.36 350.952C560.368 350.952 559.584 350.664 559.008 350.088C558.432 349.512 558.144 348.792 558.144 347.928C558.144 347.064 558.688 345.56 559.776 343.416C560.896 341.24 561.456 339.64 561.456 338.616C561.456 338.168 561.264 337.768 560.88 337.416C560.528 337.032 560.096 336.84 559.584 336.84C557.952 336.84 556.304 338.088 554.64 340.584C552.976 343.048 551.12 346.616 549.072 351.288L546.192 350.28C546.8 346.568 547.664 342.952 548.784 339.432C549.936 335.88 550.992 333.336 551.952 331.8L553.92 332.424C553.024 334.696 551.888 338.616 550.512 344.184C554.928 336.632 558.992 332.856 562.704 332.856C563.504 332.856 564.16 333.128 564.672 333.672C565.216 334.216 565.488 334.856 565.488 335.592C565.488 336.328 565.392 337 565.2 337.608C565.008 338.184 564.4 339.56 563.376 341.736C562.384 343.88 561.888 345.224 561.888 345.768C561.888 346.312 562.048 346.744 562.368 347.064C562.688 347.352 562.992 347.496 563.28 347.496C563.568 347.496 563.808 347.448 564 347.352C564.192 347.256 564.4 347.112 564.624 346.92C564.88 346.728 565.104 346.552 565.296 346.392C565.488 346.232 565.712 346.024 565.968 345.768C566.256 345.48 566.464 345.288 566.592 345.192ZM582.426 336.744C583.258 338.12 583.674 339.64 583.674 341.304C583.674 343.896 582.778 346.216 580.986 348.264C579.194 350.28 577.082 351.288 574.65 351.288C572.794 351.288 571.338 350.76 570.282 349.704C569.258 348.616 568.746 347.128 568.746 345.24C568.746 342.2 569.93 339.48 572.298 337.08C574.666 334.648 577.322 333.432 580.266 333.432C580.81 333.432 581.194 333.448 581.418 333.48L581.562 335.064C579.002 335.064 576.874 335.8 575.178 337.272C573.482 338.744 572.634 340.632 572.634 342.936C572.634 344.312 572.97 345.432 573.642 346.296C574.314 347.128 575.29 347.544 576.57 347.544C577.882 347.544 578.922 346.968 579.69 345.816C580.458 344.664 580.842 343.32 580.842 341.784C580.842 340.216 580.538 338.792 579.93 337.512L582.426 336.744ZM595.868 345.624L596.924 346.824C596.124 348.072 595.148 349.048 593.996 349.752C592.876 350.456 591.74 350.808 590.588 350.808C589.436 350.808 588.524 350.488 587.852 349.848C587.18 349.176 586.844 348.264 586.844 347.112C586.844 344.424 587.852 340.712 589.868 335.976C588.236 336.232 586.604 336.616 584.972 337.128L584.636 335.256L584.588 335.208C586.188 334.536 588.284 333.992 590.876 333.576C591.132 333.096 591.708 331.928 592.604 330.072C594.396 326.392 595.676 324.008 596.444 322.92L598.508 323.736C598.188 324.44 597.628 325.624 596.828 327.288C596.028 328.92 595.132 330.776 594.14 332.856C595.58 332.76 596.716 332.712 597.548 332.712C598.38 332.712 599.02 332.84 599.468 333.096V335.16C599.02 335.064 598.364 335.016 597.5 335.016C596.668 335.016 595.164 335.16 592.988 335.448C591.1 339.672 590.156 342.744 590.156 344.664C590.156 345.4 590.38 346.008 590.828 346.488C591.308 346.968 591.932 347.208 592.7 347.208C593.5 347.208 594.556 346.68 595.868 345.624ZM644.135 346.152L645.239 346.968C644.791 347.928 643.959 348.84 642.743 349.704C641.559 350.568 640.471 351 639.479 351C637.591 351 636.647 350.008 636.647 348.024C636.647 347.096 636.887 345.992 637.367 344.712L635.591 346.536C633.863 348.296 632.359 349.48 631.079 350.088C629.831 350.696 628.599 351 627.383 351C626.167 351 625.239 350.664 624.599 349.992C623.991 349.288 623.687 348.328 623.687 347.112C623.687 344.872 624.551 342.664 626.279 340.488C628.007 338.28 630.215 336.488 632.903 335.112C635.591 333.736 638.279 333.032 640.967 333L641.063 334.584L639.047 335.016C636.135 335.656 633.559 336.936 631.319 338.856C629.111 340.776 628.007 342.696 628.007 344.616C628.007 346.504 628.775 347.448 630.311 347.448C631.751 347.448 633.527 346.44 635.639 344.424C637.751 342.408 639.511 340.04 640.919 337.32L642.935 338.52C640.951 342.52 639.959 345.064 639.959 346.152C639.959 346.6 640.103 346.984 640.391 347.304C640.711 347.592 641.015 347.736 641.303 347.736C641.623 347.736 641.831 347.72 641.927 347.688C642.023 347.656 642.119 347.624 642.215 347.592C642.311 347.528 642.423 347.448 642.551 347.352C642.711 347.256 642.839 347.16 642.935 347.064C643.063 346.968 643.255 346.824 643.511 346.632C643.767 346.44 643.975 346.28 644.135 346.152ZM680.337 345.624L681.393 346.824C680.593 348.072 679.617 349.048 678.465 349.752C677.345 350.456 676.209 350.808 675.057 350.808C673.905 350.808 672.993 350.488 672.321 349.848C671.649 349.176 671.313 348.264 671.313 347.112C671.313 344.424 672.321 340.712 674.337 335.976C672.705 336.232 671.073 336.616 669.441 337.128L669.105 335.256L669.057 335.208C670.657 334.536 672.753 333.992 675.345 333.576C675.601 333.096 676.177 331.928 677.073 330.072C678.865 326.392 680.145 324.008 680.913 322.92L682.977 323.736C682.657 324.44 682.097 325.624 681.297 327.288C680.497 328.92 679.601 330.776 678.609 332.856C680.049 332.76 681.185 332.712 682.017 332.712C682.849 332.712 683.489 332.84 683.937 333.096V335.16C683.489 335.064 682.833 335.016 681.969 335.016C681.137 335.016 679.633 335.16 677.457 335.448C675.569 339.672 674.625 342.744 674.625 344.664C674.625 345.4 674.849 346.008 675.297 346.488C675.777 346.968 676.401 347.208 677.169 347.208C677.969 347.208 679.025 346.68 680.337 345.624ZM703.477 347.496L704.581 348.408C703.237 350.648 701.493 351.768 699.349 351.768C697.493 351.768 696.565 350.856 696.565 349.032C696.565 347.976 697.013 346.296 697.909 343.992C698.837 341.656 699.301 340.12 699.301 339.384C699.301 338.456 698.709 337.992 697.525 337.992C696.341 337.992 694.725 339.272 692.677 341.832C690.661 344.36 688.965 347.304 687.589 350.664L684.757 349.656C686.421 341.304 690.773 330.12 697.813 316.104L700.165 316.872C696.613 323.976 694.069 329.624 692.533 333.816C690.933 338.168 689.733 341.768 688.933 344.616C691.397 340.552 693.509 337.736 695.269 336.168C697.061 334.6 698.613 333.816 699.925 333.816C702.293 333.816 703.477 334.664 703.477 336.36C703.477 337.416 702.885 339.304 701.701 342.024C700.517 344.744 699.925 346.552 699.925 347.448C699.925 348.344 700.357 348.792 701.221 348.792C701.669 348.792 702.421 348.36 703.477 347.496ZM719.154 345.336L720.258 346.2C719.266 347.576 717.906 348.728 716.178 349.656C714.45 350.552 712.77 351 711.138 351C709.506 351 708.194 350.52 707.202 349.56C706.21 348.6 705.714 347.336 705.714 345.768C705.714 342.824 707.266 339.928 710.37 337.08C713.506 334.232 716.674 332.808 719.874 332.808C721.986 332.808 723.042 333.64 723.042 335.304C723.042 337.032 721.922 338.776 719.682 340.536C717.474 342.296 714.354 343.896 710.322 345.336C710.61 346.072 711.058 346.648 711.666 347.064C712.274 347.48 712.898 347.688 713.538 347.688C714.914 347.688 716.786 346.904 719.154 345.336ZM710.082 343.896C712.674 343 714.898 341.88 716.754 340.536C718.61 339.192 719.538 337.96 719.538 336.84C719.538 336.424 719.378 336.056 719.058 335.736C718.738 335.416 718.37 335.256 717.954 335.256C716.45 335.256 714.818 336.2 713.058 338.088C711.33 339.944 710.338 341.88 710.082 343.896ZM756.492 344.76L757.5 345.72C755.676 348.984 753.58 350.616 751.212 350.616C750.252 350.616 749.5 350.36 748.956 349.848C748.444 349.304 748.188 348.6 748.188 347.736C748.188 346.84 748.716 345.32 749.772 343.176C750.828 341.032 751.388 339.4 751.452 338.28C751.484 337.768 751.324 337.352 750.972 337.032C750.652 336.712 750.204 336.552 749.628 336.552C749.052 336.552 748.46 336.696 747.852 336.984C747.276 337.24 746.7 337.672 746.124 338.28C745.58 338.888 745.068 339.48 744.588 340.056C744.14 340.632 743.628 341.448 743.052 342.504C742.508 343.56 742.044 344.44 741.66 345.144C740.988 346.456 740.028 348.424 738.78 351.048L735.9 350.04C735.9 349.944 736.428 348.136 737.484 344.616C738.54 341.096 739.068 339 739.068 338.328C739.068 337.656 738.908 337.176 738.588 336.888C738.268 336.568 737.868 336.408 737.388 336.408C735.948 336.408 733.948 338.2 731.388 341.784C728.86 345.368 727.244 348.424 726.54 350.952L723.804 350.04C723.964 348.344 724.716 345.304 726.06 340.92C727.404 336.504 728.54 333.496 729.468 331.896L731.628 332.664C730.636 334.872 729.948 336.744 729.564 338.28C729.18 339.784 728.844 341.4 728.556 343.128C731.308 339.192 733.612 336.44 735.468 334.872C737.324 333.272 739.004 332.472 740.508 332.472C742.14 332.472 742.956 333.288 742.956 334.92C742.956 335.56 742.668 336.824 742.092 338.712C741.548 340.6 741.116 342.088 740.796 343.176C745.212 336.072 749.164 332.52 752.652 332.52C753.516 332.52 754.204 332.792 754.716 333.336C755.228 333.848 755.484 334.632 755.484 335.688C755.484 336.712 754.876 338.424 753.66 340.824C752.476 343.224 751.884 344.744 751.884 345.384C751.884 345.992 752.012 346.44 752.268 346.728C752.524 347.016 752.844 347.16 753.228 347.16C754.06 347.16 755.148 346.36 756.492 344.76ZM768.428 330.648C766.636 330.648 765.74 329.928 765.74 328.488C765.74 327.688 765.964 327.016 766.412 326.472C766.86 325.928 767.436 325.656 768.14 325.656C768.844 325.656 769.42 325.864 769.868 326.28C770.316 326.696 770.54 327.24 770.54 327.912C770.54 328.584 770.348 329.208 769.964 329.784C769.58 330.36 769.068 330.648 768.428 330.648ZM767.804 344.808L768.764 345.624C767.996 347.096 766.972 348.36 765.692 349.416C764.444 350.44 763.308 350.952 762.284 350.952C760.492 350.952 759.596 349.704 759.596 347.208C759.596 344.104 760.876 340.056 763.436 335.064C764.012 333.976 764.348 333.336 764.444 333.144L766.508 334.392C765.836 335.608 765.004 337.544 764.012 340.2C763.052 342.856 762.572 344.568 762.572 345.336C762.572 346.072 762.732 346.6 763.052 346.92C763.372 347.24 763.756 347.4 764.204 347.4C765.068 347.4 766.268 346.536 767.804 344.808ZM791.592 345.192L792.6 345.96C791.896 347.368 790.92 348.552 789.672 349.512C788.456 350.472 787.352 350.952 786.36 350.952C785.368 350.952 784.584 350.664 784.008 350.088C783.432 349.512 783.144 348.792 783.144 347.928C783.144 347.064 783.688 345.56 784.776 343.416C785.896 341.24 786.456 339.64 786.456 338.616C786.456 338.168 786.264 337.768 785.88 337.416C785.528 337.032 785.096 336.84 784.584 336.84C782.952 336.84 781.304 338.088 779.64 340.584C777.976 343.048 776.12 346.616 774.072 351.288L771.192 350.28C771.8 346.568 772.664 342.952 773.784 339.432C774.936 335.88 775.992 333.336 776.952 331.8L778.92 332.424C778.024 334.696 776.888 338.616 775.512 344.184C779.928 336.632 783.992 332.856 787.704 332.856C788.504 332.856 789.16 333.128 789.672 333.672C790.216 334.216 790.488 334.856 790.488 335.592C790.488 336.328 790.392 337 790.2 337.608C790.008 338.184 789.4 339.56 788.376 341.736C787.384 343.88 786.888 345.224 786.888 345.768C786.888 346.312 787.048 346.744 787.368 347.064C787.688 347.352 787.992 347.496 788.28 347.496C788.568 347.496 788.808 347.448 789 347.352C789.192 347.256 789.4 347.112 789.624 346.92C789.88 346.728 790.104 346.552 790.296 346.392C790.488 346.232 790.712 346.024 790.968 345.768C791.256 345.48 791.464 345.288 791.592 345.192ZM814.434 349.272L814.482 350.424C814.162 350.616 812.706 351.192 810.114 352.152C809.09 358.264 807.586 362.68 805.602 365.4C803.618 368.12 801.186 369.48 798.306 369.48C796.962 369.48 795.89 369.048 795.09 368.184C794.29 367.32 793.89 366.2 793.89 364.824C793.89 362.072 795.154 359.496 797.682 357.096C800.21 354.728 803.586 352.856 807.81 351.48C808.29 349.336 809.154 346.312 810.402 342.408C808.258 345.672 806.306 347.88 804.546 349.032C802.818 350.184 801.25 350.76 799.842 350.76C798.434 350.76 797.362 350.376 796.626 349.608C795.922 348.84 795.57 347.816 795.57 346.536C795.57 344.424 796.45 342.28 798.21 340.104C799.97 337.896 802.178 336.104 804.834 334.728C807.522 333.32 810.114 332.616 812.61 332.616L812.994 334.296C809.442 334.68 806.386 335.928 803.826 338.04C801.298 340.152 800.034 342.184 800.034 344.136C800.034 344.968 800.29 345.656 800.802 346.2C801.314 346.744 801.938 347.016 802.674 347.016C803.762 347.016 805.41 345.864 807.618 343.56C809.826 341.256 811.378 339.288 812.274 337.656L814.05 338.664C812.29 343.368 811.074 347.336 810.402 350.568L814.434 349.272ZM807.522 352.92C804.738 354.2 802.434 355.736 800.61 357.528C798.786 359.32 797.874 360.952 797.874 362.424C797.874 363.192 798.098 363.816 798.546 364.296C798.994 364.776 799.554 365.016 800.226 365.016C801.57 365.016 802.898 364.072 804.21 362.184C805.522 360.296 806.626 357.208 807.522 352.92ZM851.811 345.336L852.915 346.2C851.923 347.576 850.563 348.728 848.835 349.656C847.107 350.552 845.427 351 843.795 351C842.163 351 840.851 350.52 839.859 349.56C838.867 348.6 838.371 347.336 838.371 345.768C838.371 342.824 839.923 339.928 843.027 337.08C846.163 334.232 849.331 332.808 852.531 332.808C854.643 332.808 855.699 333.64 855.699 335.304C855.699 337.032 854.579 338.776 852.339 340.536C850.131 342.296 847.011 343.896 842.979 345.336C843.267 346.072 843.715 346.648 844.323 347.064C844.931 347.48 845.555 347.688 846.195 347.688C847.571 347.688 849.443 346.904 851.811 345.336ZM842.739 343.896C845.331 343 847.555 341.88 849.411 340.536C851.267 339.192 852.195 337.96 852.195 336.84C852.195 336.424 852.035 336.056 851.715 335.736C851.395 335.416 851.027 335.256 850.611 335.256C849.107 335.256 847.475 336.2 845.715 338.088C843.987 339.944 842.995 341.88 842.739 343.896ZM876.764 345.192L877.772 345.96C877.068 347.368 876.092 348.552 874.844 349.512C873.628 350.472 872.524 350.952 871.532 350.952C870.54 350.952 869.756 350.664 869.18 350.088C868.604 349.512 868.316 348.792 868.316 347.928C868.316 347.064 868.86 345.56 869.948 343.416C871.068 341.24 871.628 339.64 871.628 338.616C871.628 338.168 871.436 337.768 871.052 337.416C870.7 337.032 870.268 336.84 869.756 336.84C868.124 336.84 866.476 338.088 864.812 340.584C863.148 343.048 861.292 346.616 859.244 351.288L856.364 350.28C856.972 346.568 857.836 342.952 858.956 339.432C860.108 335.88 861.164 333.336 862.124 331.8L864.092 332.424C863.196 334.696 862.06 338.616 860.684 344.184C865.1 336.632 869.164 332.856 872.876 332.856C873.676 332.856 874.332 333.128 874.844 333.672C875.388 334.216 875.66 334.856 875.66 335.592C875.66 336.328 875.564 337 875.372 337.608C875.18 338.184 874.572 339.56 873.548 341.736C872.556 343.88 872.06 345.224 872.06 345.768C872.06 346.312 872.22 346.744 872.54 347.064C872.86 347.352 873.164 347.496 873.452 347.496C873.74 347.496 873.98 347.448 874.172 347.352C874.364 347.256 874.572 347.112 874.796 346.92C875.052 346.728 875.276 346.552 875.468 346.392C875.66 346.232 875.884 346.024 876.14 345.768C876.428 345.48 876.636 345.288 876.764 345.192ZM899.606 349.272L899.654 350.424C899.334 350.616 897.878 351.192 895.286 352.152C894.262 358.264 892.758 362.68 890.773 365.4C888.79 368.12 886.358 369.48 883.478 369.48C882.134 369.48 881.062 369.048 880.262 368.184C879.462 367.32 879.062 366.2 879.062 364.824C879.062 362.072 880.326 359.496 882.854 357.096C885.382 354.728 888.758 352.856 892.982 351.48C893.462 349.336 894.326 346.312 895.574 342.408C893.43 345.672 891.478 347.88 889.718 349.032C887.99 350.184 886.422 350.76 885.014 350.76C883.606 350.76 882.534 350.376 881.798 349.608C881.094 348.84 880.742 347.816 880.742 346.536C880.742 344.424 881.622 342.28 883.382 340.104C885.142 337.896 887.35 336.104 890.006 334.728C892.694 333.32 895.286 332.616 897.782 332.616L898.166 334.296C894.614 334.68 891.558 335.928 888.998 338.04C886.47 340.152 885.206 342.184 885.206 344.136C885.206 344.968 885.462 345.656 885.974 346.2C886.486 346.744 887.11 347.016 887.846 347.016C888.934 347.016 890.582 345.864 892.79 343.56C894.998 341.256 896.55 339.288 897.446 337.656L899.222 338.664C897.462 343.368 896.246 347.336 895.574 350.568L899.606 349.272ZM892.694 352.92C889.91 354.2 887.606 355.736 885.782 357.528C883.958 359.32 883.046 360.952 883.046 362.424C883.046 363.192 883.27 363.816 883.718 364.296C884.166 364.776 884.726 365.016 885.398 365.016C886.742 365.016 888.07 364.072 889.382 362.184C890.694 360.296 891.798 357.208 892.694 352.92ZM910.272 330.648C908.48 330.648 907.584 329.928 907.584 328.488C907.584 327.688 907.808 327.016 908.256 326.472C908.704 325.928 909.28 325.656 909.984 325.656C910.688 325.656 911.264 325.864 911.712 326.28C912.16 326.696 912.384 327.24 912.384 327.912C912.384 328.584 912.192 329.208 911.808 329.784C911.424 330.36 910.912 330.648 910.272 330.648ZM909.648 344.808L910.608 345.624C909.84 347.096 908.816 348.36 907.536 349.416C906.288 350.44 905.152 350.952 904.128 350.952C902.336 350.952 901.44 349.704 901.44 347.208C901.44 344.104 902.72 340.056 905.28 335.064C905.856 333.976 906.192 333.336 906.288 333.144L908.352 334.392C907.68 335.608 906.848 337.544 905.856 340.2C904.896 342.856 904.416 344.568 904.416 345.336C904.416 346.072 904.576 346.6 904.896 346.92C905.216 347.24 905.6 347.4 906.048 347.4C906.912 347.4 908.112 346.536 909.648 344.808ZM933.436 345.192L934.444 345.96C933.74 347.368 932.764 348.552 931.516 349.512C930.3 350.472 929.196 350.952 928.204 350.952C927.212 350.952 926.428 350.664 925.852 350.088C925.276 349.512 924.988 348.792 924.988 347.928C924.988 347.064 925.532 345.56 926.62 343.416C927.74 341.24 928.3 339.64 928.3 338.616C928.3 338.168 928.108 337.768 927.724 337.416C927.372 337.032 926.94 336.84 926.428 336.84C924.796 336.84 923.148 338.088 921.484 340.584C919.82 343.048 917.964 346.616 915.916 351.288L913.036 350.28C913.644 346.568 914.508 342.952 915.628 339.432C916.78 335.88 917.836 333.336 918.796 331.8L920.764 332.424C919.868 334.696 918.732 338.616 917.356 344.184C921.772 336.632 925.836 332.856 929.548 332.856C930.348 332.856 931.004 333.128 931.516 333.672C932.06 334.216 932.332 334.856 932.332 335.592C932.332 336.328 932.236 337 932.044 337.608C931.852 338.184 931.244 339.56 930.22 341.736C929.228 343.88 928.732 345.224 928.732 345.768C928.732 346.312 928.892 346.744 929.212 347.064C929.532 347.352 929.836 347.496 930.124 347.496C930.412 347.496 930.652 347.448 930.844 347.352C931.036 347.256 931.244 347.112 931.468 346.92C931.724 346.728 931.948 346.552 932.14 346.392C932.332 346.232 932.556 346.024 932.812 345.768C933.1 345.48 933.308 345.288 933.436 345.192ZM949.029 345.336L950.133 346.2C949.141 347.576 947.781 348.728 946.053 349.656C944.325 350.552 942.645 351 941.013 351C939.381 351 938.069 350.52 937.077 349.56C936.085 348.6 935.589 347.336 935.589 345.768C935.589 342.824 937.141 339.928 940.245 337.08C943.381 334.232 946.549 332.808 949.749 332.808C951.861 332.808 952.917 333.64 952.917 335.304C952.917 337.032 951.797 338.776 949.557 340.536C947.349 342.296 944.229 343.896 940.197 345.336C940.485 346.072 940.933 346.648 941.541 347.064C942.149 347.48 942.773 347.688 943.413 347.688C944.789 347.688 946.661 346.904 949.029 345.336ZM939.957 343.896C942.549 343 944.773 341.88 946.629 340.536C948.485 339.192 949.413 337.96 949.413 336.84C949.413 336.424 949.253 336.056 948.933 335.736C948.613 335.416 948.245 335.256 947.829 335.256C946.325 335.256 944.693 336.2 942.933 338.088C941.205 339.944 940.213 341.88 939.957 343.896Z" fill="white"/>
<path d="M333.766 186.25V180.625H418.141V186.25H333.766ZM333.766 197.5V191.875H418.141V197.5H333.766ZM333.766 208.75V203.125H418.141V208.75H395.641V310H390.016V208.75H384.391V310H378.766V208.75H373.141V310H367.516V208.75H361.891V310H356.266V208.75H333.766ZM543.531 197.5H549.156V310H543.531V197.5ZM430.953 197.5H436.578V310H430.953V197.5ZM532.281 197.5H537.906V310H532.281V197.5ZM521.031 197.5H526.656V310H521.031V197.5ZM509.781 197.5H515.406V310H509.781V265H470.328V310H464.703V197.5H470.328V236.875H509.781V197.5ZM453.453 197.5H459.078V310H453.453V197.5ZM442.203 197.5H447.828V310H442.203V197.5ZM509.781 259.375V253.75H470.328V259.375H509.781ZM509.781 248.125V242.5H470.328V248.125H509.781ZM592.047 310H586.422V197.5H592.047V310ZM580.797 310H575.172V197.5H580.797V310ZM569.547 310H563.922V197.5H569.547V310ZM603.297 281.875H657.125V287.5H603.297V293.125H657.125V298.75H603.297V304.375H657.125V310H597.672V197.5H657.125V203.125H603.297V208.75H657.125V214.375H603.297V220H657.125V225.625H603.297V239.609H654V245.234H603.297V250.859H654V256.484H603.297V262.109H654V267.734H603.297V281.875ZM742.516 239.688V310H736.891V239.688C736.891 238.177 736.63 236.901 736.109 235.859C735.641 234.766 735.016 233.932 734.234 233.359C733.453 232.786 732.411 232.344 731.109 232.031C729.859 231.667 728.635 231.458 727.438 231.406C726.24 231.302 724.755 231.25 722.984 231.25C721.214 231.25 719.729 231.302 718.531 231.406C717.333 231.458 716.083 231.667 714.781 232.031C713.531 232.344 712.516 232.786 711.734 233.359C710.953 233.932 710.302 234.766 709.781 235.859C709.312 236.901 709.078 238.177 709.078 239.688V310H703.453V239.688C703.453 230.312 709.964 225.625 722.984 225.625C736.005 225.625 742.516 230.312 742.516 239.688ZM753.766 239.688V310H748.141V239.688C748.141 233.073 745.797 228.151 741.109 224.922C736.474 221.641 730.432 220 722.984 220C715.536 220 709.469 221.641 704.781 224.922C700.146 228.151 697.828 233.073 697.828 239.688V310H692.203V239.688C692.203 234.219 693.609 229.531 696.422 225.625C699.234 221.719 702.906 218.88 707.438 217.109C712.021 215.286 717.203 214.375 722.984 214.375C728.766 214.375 733.922 215.286 738.453 217.109C743.036 218.88 746.734 221.719 749.547 225.625C752.359 229.531 753.766 234.219 753.766 239.688ZM765.016 239.688V310H759.391V239.688C759.391 234.792 758.427 230.365 756.5 226.406C754.625 222.448 752.021 219.193 748.688 216.641C745.354 214.089 741.5 212.135 737.125 210.781C732.75 209.427 728.036 208.75 722.984 208.75C717.932 208.75 713.219 209.427 708.844 210.781C704.469 212.135 700.615 214.089 697.281 216.641C693.948 219.193 691.318 222.448 689.391 226.406C687.516 230.365 686.578 234.792 686.578 239.688V310H680.953V239.688C680.953 234.01 682.047 228.854 684.234 224.219C686.474 219.583 689.495 215.755 693.297 212.734C697.099 209.661 701.552 207.292 706.656 205.625C711.76 203.958 717.203 203.125 722.984 203.125C728.766 203.125 734.208 203.958 739.312 205.625C744.417 207.292 748.87 209.661 752.672 212.734C756.474 215.755 759.469 219.583 761.656 224.219C763.896 228.854 765.016 234.01 765.016 239.688ZM776.266 310H770.641V239.688C770.641 234.01 769.365 228.568 766.812 223.359C764.312 218.151 760.927 213.672 756.656 209.922C752.385 206.12 747.307 203.099 741.422 200.859C735.536 198.62 729.391 197.5 722.984 197.5C714.182 197.5 706.188 199.167 699 202.5C691.865 205.781 686.135 210.677 681.812 217.188C677.49 223.646 675.328 231.146 675.328 239.688V310H669.703V239.688C669.703 232.5 671.109 225.885 673.922 219.844C676.734 213.802 680.536 208.75 685.328 204.688C690.172 200.625 695.823 197.474 702.281 195.234C708.792 192.995 715.693 191.875 722.984 191.875C735.901 191.875 747.099 195.13 756.578 201.641C766.057 195.13 777.255 191.875 790.172 191.875C797.464 191.875 804.339 192.995 810.797 195.234C817.307 197.474 822.958 200.625 827.75 204.688C832.594 208.75 836.422 213.802 839.234 219.844C842.047 225.885 843.453 232.5 843.453 239.688V310H837.828V239.688C837.828 231.198 835.667 223.724 831.344 217.266C827.021 210.755 821.266 205.833 814.078 202.5C806.943 199.167 798.974 197.5 790.172 197.5C779.13 197.5 769.495 200.104 761.266 205.312C762.464 206.354 763.792 207.708 765.25 209.375C772.385 205.208 780.693 203.125 790.172 203.125C795.953 203.125 801.396 203.958 806.5 205.625C811.604 207.292 816.057 209.661 819.859 212.734C823.661 215.755 826.656 219.583 828.844 224.219C831.083 228.854 832.203 234.01 832.203 239.688V310H826.578V239.688C826.578 234.792 825.615 230.365 823.688 226.406C821.812 222.448 819.208 219.193 815.875 216.641C812.542 214.089 808.688 212.135 804.312 210.781C799.938 209.427 795.224 208.75 790.172 208.75C781.891 208.75 774.729 210.443 768.688 213.828C769.625 215.286 770.562 216.901 771.5 218.672C776.604 215.807 782.828 214.375 790.172 214.375C795.953 214.375 801.109 215.286 805.641 217.109C810.224 218.88 813.922 221.719 816.734 225.625C819.547 229.531 820.953 234.219 820.953 239.688V310H815.328V239.688C815.328 233.073 812.984 228.151 808.297 224.922C803.661 221.641 797.62 220 790.172 220C783.401 220 777.906 221.25 773.688 223.75C774.365 225.729 774.885 227.604 775.25 229.375C778.531 226.875 783.505 225.625 790.172 225.625C803.193 225.625 809.703 230.312 809.703 239.688V310H804.078V239.688C804.078 238.177 803.818 236.901 803.297 235.859C802.828 234.766 802.203 233.932 801.422 233.359C800.641 232.786 799.599 232.344 798.297 232.031C797.047 231.667 795.823 231.458 794.625 231.406C793.427 231.302 791.943 231.25 790.172 231.25C788.401 231.25 786.917 231.302 785.719 231.406C784.521 231.458 783.271 231.667 781.969 232.031C780.719 232.344 779.703 232.786 778.922 233.359C778.141 233.932 777.49 234.766 776.969 235.859C776.5 236.901 776.266 238.177 776.266 239.688V310ZM929.391 239.688V310H923.766V239.688C923.766 238.177 923.505 236.901 922.984 235.859C922.516 234.766 921.891 233.932 921.109 233.359C920.328 232.786 919.286 232.344 917.984 232.031C916.734 231.667 915.51 231.458 914.312 231.406C913.115 231.302 911.63 231.25 909.859 231.25C908.089 231.25 906.604 231.302 905.406 231.406C904.208 231.458 902.958 231.667 901.656 232.031C900.406 232.344 899.391 232.786 898.609 233.359C897.828 233.932 897.177 234.766 896.656 235.859C896.188 236.901 895.953 238.177 895.953 239.688V310H890.328V239.688C890.328 230.312 896.839 225.625 909.859 225.625C922.88 225.625 929.391 230.312 929.391 239.688ZM940.641 239.688V310H935.016V239.688C935.016 233.073 932.672 228.151 927.984 224.922C923.349 221.641 917.307 220 909.859 220C902.411 220 896.344 221.641 891.656 224.922C887.021 228.151 884.703 233.073 884.703 239.688V310H879.078V239.688C879.078 234.219 880.484 229.531 883.297 225.625C886.109 221.719 889.781 218.88 894.312 217.109C898.896 215.286 904.078 214.375 909.859 214.375C915.641 214.375 920.797 215.286 925.328 217.109C929.911 218.88 933.609 221.719 936.422 225.625C939.234 229.531 940.641 234.219 940.641 239.688ZM951.891 239.688V310H946.266V239.688C946.266 234.792 945.302 230.365 943.375 226.406C941.5 222.448 938.896 219.193 935.562 216.641C932.229 214.089 928.375 212.135 924 210.781C919.625 209.427 914.911 208.75 909.859 208.75C904.807 208.75 900.094 209.427 895.719 210.781C891.344 212.135 887.49 214.089 884.156 216.641C880.823 219.193 878.193 222.448 876.266 226.406C874.391 230.365 873.453 234.792 873.453 239.688V310H867.828V239.688C867.828 234.01 868.922 228.854 871.109 224.219C873.349 219.583 876.37 215.755 880.172 212.734C883.974 209.661 888.427 207.292 893.531 205.625C898.635 203.958 904.078 203.125 909.859 203.125C915.641 203.125 921.083 203.958 926.188 205.625C931.292 207.292 935.745 209.661 939.547 212.734C943.349 215.755 946.344 219.583 948.531 224.219C950.771 228.854 951.891 234.01 951.891 239.688ZM963.141 310H957.516V239.688C957.516 234.01 956.24 228.568 953.688 223.359C951.188 218.151 947.802 213.672 943.531 209.922C939.26 206.12 934.182 203.099 928.297 200.859C922.411 198.62 916.266 197.5 909.859 197.5C901.057 197.5 893.062 199.167 885.875 202.5C878.74 205.781 873.01 210.677 868.688 217.188C864.365 223.646 862.203 231.146 862.203 239.688V310H856.578V239.688C856.578 232.5 857.984 225.885 860.797 219.844C863.609 213.802 867.411 208.75 872.203 204.688C877.047 200.625 882.698 197.474 889.156 195.234C895.667 192.995 902.568 191.875 909.859 191.875C922.776 191.875 933.974 195.13 943.453 201.641C952.932 195.13 964.13 191.875 977.047 191.875C984.339 191.875 991.214 192.995 997.672 195.234C1004.18 197.474 1009.83 200.625 1014.62 204.688C1019.47 208.75 1023.3 213.802 1026.11 219.844C1028.92 225.885 1030.33 232.5 1030.33 239.688V310H1024.7V239.688C1024.7 231.198 1022.54 223.724 1018.22 217.266C1013.9 210.755 1008.14 205.833 1000.95 202.5C993.818 199.167 985.849 197.5 977.047 197.5C966.005 197.5 956.37 200.104 948.141 205.312C949.339 206.354 950.667 207.708 952.125 209.375C959.26 205.208 967.568 203.125 977.047 203.125C982.828 203.125 988.271 203.958 993.375 205.625C998.479 207.292 1002.93 209.661 1006.73 212.734C1010.54 215.755 1013.53 219.583 1015.72 224.219C1017.96 228.854 1019.08 234.01 1019.08 239.688V310H1013.45V239.688C1013.45 234.792 1012.49 230.365 1010.56 226.406C1008.69 222.448 1006.08 219.193 1002.75 216.641C999.417 214.089 995.562 212.135 991.188 210.781C986.812 209.427 982.099 208.75 977.047 208.75C968.766 208.75 961.604 210.443 955.562 213.828C956.5 215.286 957.438 216.901 958.375 218.672C963.479 215.807 969.703 214.375 977.047 214.375C982.828 214.375 987.984 215.286 992.516 217.109C997.099 218.88 1000.8 221.719 1003.61 225.625C1006.42 229.531 1007.83 234.219 1007.83 239.688V310H1002.2V239.688C1002.2 233.073 999.859 228.151 995.172 224.922C990.536 221.641 984.495 220 977.047 220C970.276 220 964.781 221.25 960.562 223.75C961.24 225.729 961.76 227.604 962.125 229.375C965.406 226.875 970.38 225.625 977.047 225.625C990.068 225.625 996.578 230.312 996.578 239.688V310H990.953V239.688C990.953 238.177 990.693 236.901 990.172 235.859C989.703 234.766 989.078 233.932 988.297 233.359C987.516 232.786 986.474 232.344 985.172 232.031C983.922 231.667 982.698 231.458 981.5 231.406C980.302 231.302 978.818 231.25 977.047 231.25C975.276 231.25 973.792 231.302 972.594 231.406C971.396 231.458 970.146 231.667 968.844 232.031C967.594 232.344 966.578 232.786 965.797 233.359C965.016 233.932 964.365 234.766 963.844 235.859C963.375 236.901 963.141 238.177 963.141 239.688V310ZM1087.36 237.891C1082.98 242.266 1080.8 247.552 1080.8 253.75C1080.8 259.948 1082.98 265.26 1087.36 269.688C1091.79 274.062 1097.1 276.25 1103.3 276.25C1109.49 276.25 1114.78 274.062 1119.16 269.688C1123.58 265.26 1125.8 259.948 1125.8 253.75C1125.8 247.552 1123.58 242.266 1119.16 237.891C1114.78 233.464 1109.49 231.25 1103.3 231.25C1097.1 231.25 1091.79 233.464 1087.36 237.891ZM1083.38 273.672C1077.91 268.151 1075.17 261.51 1075.17 253.75C1075.17 245.99 1077.91 239.375 1083.38 233.906C1088.9 228.385 1095.54 225.625 1103.3 225.625C1111.06 225.625 1117.67 228.385 1123.14 233.906C1128.66 239.375 1131.42 245.99 1131.42 253.75C1131.42 261.51 1128.66 268.151 1123.14 273.672C1117.67 279.141 1111.06 281.875 1103.3 281.875C1095.54 281.875 1088.9 279.141 1083.38 273.672ZM1079.39 229.922C1072.83 236.536 1069.55 244.479 1069.55 253.75C1069.55 263.021 1072.83 270.964 1079.39 277.578C1086.01 284.193 1093.97 287.5 1103.3 287.5C1112.62 287.5 1120.56 284.193 1127.12 277.578C1133.74 270.964 1137.05 263.021 1137.05 253.75C1137.05 244.479 1133.74 236.536 1127.12 229.922C1120.56 223.307 1112.62 220 1103.3 220C1093.97 220 1086.01 223.307 1079.39 229.922ZM1069.16 273.516C1065.67 267.474 1063.92 260.885 1063.92 253.75C1063.92 246.615 1065.67 240.026 1069.16 233.984C1072.7 227.943 1077.49 223.177 1083.53 219.688C1089.57 216.146 1096.16 214.375 1103.3 214.375C1110.43 214.375 1117.02 216.146 1123.06 219.688C1129.1 223.177 1133.87 227.943 1137.36 233.984C1140.9 240.026 1142.67 246.615 1142.67 253.75C1142.67 260.885 1140.9 267.474 1137.36 273.516C1133.87 279.557 1129.1 284.349 1123.06 287.891C1117.02 291.38 1110.43 293.125 1103.3 293.125C1096.16 293.125 1089.57 291.38 1083.53 287.891C1077.49 284.349 1072.7 279.557 1069.16 273.516ZM1061.81 236.328C1059.47 241.849 1058.3 247.656 1058.3 253.75C1058.3 259.844 1059.47 265.677 1061.81 271.25C1064.21 276.771 1067.41 281.562 1071.42 285.625C1075.48 289.635 1080.28 292.839 1085.8 295.234C1091.37 297.578 1097.2 298.75 1103.3 298.75C1109.39 298.75 1115.2 297.578 1120.72 295.234C1126.29 292.839 1131.08 289.635 1135.09 285.625C1139.16 281.562 1142.36 276.771 1144.7 271.25C1147.1 265.677 1148.3 259.844 1148.3 253.75C1148.3 247.656 1147.1 241.849 1144.7 236.328C1142.36 230.755 1139.16 225.964 1135.09 221.953C1131.08 217.891 1126.29 214.688 1120.72 212.344C1115.2 209.948 1109.39 208.75 1103.3 208.75C1097.2 208.75 1091.37 209.948 1085.8 212.344C1080.28 214.688 1075.48 217.891 1071.42 221.953C1067.41 225.964 1064.21 230.755 1061.81 236.328ZM1056.66 273.438C1054 267.188 1052.67 260.625 1052.67 253.75C1052.67 246.875 1054 240.312 1056.66 234.062C1059.36 227.812 1062.96 222.448 1067.44 217.969C1071.97 213.438 1077.36 209.844 1083.61 207.188C1089.86 204.479 1096.42 203.125 1103.3 203.125C1110.17 203.125 1116.73 204.479 1122.98 207.188C1129.23 209.844 1134.6 213.438 1139.08 217.969C1143.61 222.448 1147.2 227.812 1149.86 234.062C1152.57 240.312 1153.92 246.875 1153.92 253.75C1153.92 260.625 1152.57 267.188 1149.86 273.438C1147.2 279.688 1143.61 285.078 1139.08 289.609C1134.6 294.089 1129.23 297.682 1122.98 300.391C1116.73 303.047 1110.17 304.375 1103.3 304.375C1096.42 304.375 1089.86 303.047 1083.61 300.391C1077.36 297.682 1071.97 294.089 1067.44 289.609C1062.96 285.078 1059.36 279.688 1056.66 273.438ZM1051.5 231.953C1048.53 238.88 1047.05 246.146 1047.05 253.75C1047.05 261.354 1048.53 268.646 1051.5 275.625C1054.47 282.552 1058.45 288.542 1063.45 293.594C1068.51 298.594 1074.49 302.578 1081.42 305.547C1088.4 308.516 1095.69 310 1103.3 310C1110.9 310 1118.17 308.516 1125.09 305.547C1132.07 302.578 1138.06 298.594 1143.06 293.594C1148.11 288.542 1152.12 282.552 1155.09 275.625C1158.06 268.646 1159.55 261.354 1159.55 253.75C1159.55 246.146 1158.06 238.88 1155.09 231.953C1152.12 224.974 1148.11 218.984 1143.06 213.984C1138.06 208.932 1132.07 204.922 1125.09 201.953C1118.17 198.984 1110.9 197.5 1103.3 197.5C1095.69 197.5 1088.4 198.984 1081.42 201.953C1074.49 204.922 1068.51 208.932 1063.45 213.984C1058.45 218.984 1054.47 224.974 1051.5 231.953ZM1046.34 277.812C1043.06 270.156 1041.42 262.135 1041.42 253.75C1041.42 245.365 1043.06 237.37 1046.34 229.766C1049.62 222.109 1054.03 215.521 1059.55 210C1065.07 204.479 1071.63 200.078 1079.23 196.797C1086.89 193.516 1094.91 191.875 1103.3 191.875C1111.68 191.875 1119.68 193.516 1127.28 196.797C1134.94 200.078 1141.53 204.479 1147.05 210C1152.57 215.521 1156.97 222.109 1160.25 229.766C1163.53 237.37 1165.17 245.365 1165.17 253.75C1165.17 262.135 1163.53 270.156 1160.25 277.812C1156.97 285.417 1152.57 291.979 1147.05 297.5C1141.53 303.021 1134.94 307.422 1127.28 310.703C1119.68 313.984 1111.68 315.625 1103.3 315.625C1094.91 315.625 1086.89 313.984 1079.23 310.703C1071.63 307.422 1065.07 303.021 1059.55 297.5C1054.03 291.979 1049.62 285.417 1046.34 277.812Z" fill="white"/>
</g>
<defs>
<clipPath id="clip0_1_2">
<rect width="1500" height="500" fill="white"/>
</clipPath>
</defs>
</svg>
